<svg width="432" height="416" viewBox="0 0 432 416" fill="none" xmlns="http://www.w3.org/2000/svg">
<circle cx="224.408" cy="207.593" r="207.593" fill="#FFF5E9"/>
<path d="M36.7265 163.198C51.3542 230.518 96.9794 253.538 117.964 256.633C119.107 252.247 120.098 238.384 114.914 218.02C108.434 192.565 93.7012 164.323 71.0848 127.551C48.4684 90.7789 31.7303 43.8831 28.6862 44.4826C25.6421 45.0822 18.4418 79.0487 36.7265 163.198Z" fill="#1A9787"/>
<path fill-rule="evenodd" clip-rule="evenodd" d="M35.0685 79.308C35.8541 79.1655 36.6063 79.6868 36.7488 80.4723C41.1761 104.882 56.1602 163.377 80.6039 202.231C92.8861 221.753 101.762 234.547 107.859 242.602C110.909 246.631 113.253 249.461 114.972 251.349C115.832 252.293 116.525 252.99 117.062 253.479C117.623 253.989 117.944 254.205 118.067 254.268C118.779 254.629 119.064 255.498 118.703 256.21C118.342 256.923 117.472 257.207 116.76 256.846C116.275 256.601 115.72 256.165 115.117 255.618C114.491 255.049 113.732 254.282 112.834 253.295C111.037 251.321 108.635 248.418 105.554 244.347C99.3904 236.204 90.4659 223.335 78.1568 203.77C53.4179 164.447 38.3534 105.519 33.9042 80.9883C33.7617 80.2028 34.283 79.4505 35.0685 79.308Z" fill="#54C9BA"/>
<path d="M56.4381 121.023C49.3991 189.553 85.5998 225.624 104.58 235.093C107.031 231.28 112.285 218.413 113.693 197.446C115.453 171.239 110.236 139.814 100.181 97.8317C90.1249 55.8489 88.8051 6.07297 85.7255 5.69588C82.6459 5.31879 65.2369 35.3603 56.4381 121.023Z" fill="#54C9BA"/>
<path fill-rule="evenodd" clip-rule="evenodd" d="M80.9572 40.7788C81.7481 40.8878 82.3009 41.6172 82.1919 42.4081C78.8065 66.9837 74.8511 127.238 85.9959 171.768C91.5959 194.142 96.052 209.063 99.3409 218.615C100.986 223.392 102.333 226.81 103.38 229.14C103.903 230.305 104.345 231.182 104.704 231.814C105.078 232.474 105.315 232.779 105.413 232.876C105.978 233.441 105.978 234.356 105.413 234.921C104.849 235.485 103.933 235.485 103.369 234.921C102.985 234.537 102.592 233.95 102.19 233.242C101.772 232.506 101.289 231.542 100.743 230.325C99.6484 227.889 98.2693 224.383 96.6073 219.556C93.2825 209.899 88.8036 194.893 83.1914 172.47C71.912 127.402 75.9257 66.7111 79.3279 42.0136C79.4369 41.2227 80.1663 40.6699 80.9572 40.7788Z" fill="#92FFF1"/>
<path fill-rule="evenodd" clip-rule="evenodd" d="M262.141 40.9538C262.79 37.3295 262.442 30.081 255.856 30.081C249.269 30.081 237.693 29.5782 232.727 29.3269C236.142 23.7333 240.571 11.0003 230.968 4.81597C218.964 -2.91439 210.102 -0.14906 206.583 4.81597C203.767 8.78799 206.331 22.5602 207.965 28.9498C199.25 27.9651 181.079 26.7124 178.112 29.5783C175.146 32.4441 175.745 38.6075 176.415 41.3309L262.141 40.9538ZM220.095 21.3451C223.566 21.3451 226.38 18.5313 226.38 15.0603C226.38 11.5893 223.566 8.77544 220.095 8.77544C216.624 8.77544 213.81 11.5893 213.81 15.0603C213.81 18.5313 216.624 21.3451 220.095 21.3451Z" fill="#08443D"/>
<path d="M102.883 48.2442C114.045 42.5627 189.991 43.9496 226.569 45.3532C248.88 44.7247 296.695 43.518 309.466 43.7191C325.429 43.9705 333.223 45.3532 338.565 57.4201C343.907 69.487 355.031 366.886 348.118 374.113C341.204 381.341 114.322 378.701 103.575 378.45C94.9768 378.249 92.6598 370.657 92.576 366.886C92.3875 284.785 92.1235 116.573 92.576 100.534C93.1417 80.4854 88.9308 55.3461 102.883 48.2442Z" fill="#116A5F"/>
<path d="M168.183 51.8268C189.323 54.2966 253.985 53.5106 298.657 52.4649C311.922 52.1543 322.974 62.5891 323.355 75.8522L330.703 331.515C331.062 344.007 321.777 354.694 309.375 356.234C295.051 358.012 276.306 360.461 256.737 363.304C230.085 367.175 174.465 368.115 136.039 368.098C122.963 368.092 112.433 357.486 112.349 344.411L110.614 72.3823C110.517 57.1704 124.435 45.6055 139.47 47.9184C148.209 49.2626 158.061 50.6443 168.183 51.8268Z" fill="#77E7D8"/>
<path d="M171.706 60.0604C191.789 62.4073 252.894 61.6849 295.631 60.6952C308.896 60.388 319.948 70.8228 320.329 84.0861L327.309 327.017C327.668 339.509 318.39 350.196 305.989 351.74C292.395 353.433 274.828 355.735 256.505 358.397C231.211 362.072 178.668 362.989 141.911 362.989C128.836 362.989 118.316 352.383 118.232 339.308L116.584 80.9935C116.487 65.7812 130.408 54.2151 145.448 56.5063C153.503 57.7336 162.488 58.9832 171.706 60.0604Z" fill="#B8F5EE"/>
<rect x="148.322" y="39.9482" width="140.152" height="20.1115" rx="10.0557" fill="#116A5F"/>
<path d="M138.894 119.388C136.948 101.059 150.724 84.5703 169.157 84.5703H186.433C204.143 84.5703 218.999 97.9326 220.869 115.544C223.041 136.001 207.005 153.829 186.433 153.829H175.877C156.541 153.829 140.936 138.617 138.894 119.388Z" fill="white"/>
<circle cx="180.313" cy="105.813" r="11.3127" fill="#116A5F"/>
<path d="M197.95 143.9C202.094 143.9 205.566 140.37 203.673 136.685C202.498 134.397 200.776 132.319 198.605 130.568C196.434 128.817 193.857 127.428 191.02 126.481C188.183 125.533 185.143 125.045 182.073 125.045C179.003 125.045 175.963 125.533 173.126 126.481C170.289 127.428 167.712 128.817 165.541 130.568C163.37 132.319 161.648 134.397 160.473 136.685C158.58 140.37 162.052 143.9 166.195 143.9L197.95 143.9Z" fill="#116A5F"/>
<path fill-rule="evenodd" clip-rule="evenodd" d="M288.48 98.3287C281.157 99.0243 272.814 99.7805 266.665 99.7805C257.003 99.7805 241.413 98.9364 234.852 98.5171C233.12 98.4065 231.806 96.9127 231.917 95.1807C232.027 93.4487 233.521 92.1344 235.253 92.2451C241.806 92.6638 257.222 93.4956 266.665 93.4956C272.458 93.4956 280.487 92.7749 287.886 92.0721C288.477 92.0159 289.064 91.9599 289.646 91.9044C292.666 91.6162 295.527 91.3432 297.974 91.146C300.823 90.9164 303.345 90.7678 304.936 90.8614C306.669 90.9633 307.991 92.4504 307.889 94.183C307.787 95.9155 306.3 97.2373 304.567 97.1354C303.487 97.0719 301.405 97.1747 298.479 97.4106C296.083 97.6036 293.278 97.8713 290.256 98.1596C289.672 98.2153 289.079 98.2718 288.48 98.3287Z" fill="white"/>
<path fill-rule="evenodd" clip-rule="evenodd" d="M290.24 108.785C282.917 109.48 274.574 110.237 268.425 110.237C258.763 110.237 243.173 109.392 236.612 108.973C234.88 108.863 233.566 107.369 233.676 105.637C233.787 103.905 235.281 102.59 237.013 102.701C243.566 103.12 258.981 103.952 268.425 103.952C274.218 103.952 282.247 103.231 289.646 102.528C290.237 102.472 290.824 102.416 291.405 102.36C294.426 102.072 297.287 101.799 299.734 101.602C302.583 101.372 305.105 101.224 306.696 101.317C308.428 101.419 309.75 102.906 309.648 104.639C309.546 106.372 308.059 107.693 306.327 107.591C305.247 107.528 303.165 107.631 300.238 107.867C297.843 108.06 295.038 108.327 292.016 108.616C291.432 108.671 290.839 108.728 290.24 108.785Z" fill="white"/>
<path fill-rule="evenodd" clip-rule="evenodd" d="M290.24 119.217C282.917 119.913 274.574 120.669 268.425 120.669C258.763 120.669 243.173 119.825 236.612 119.406C234.88 119.295 233.566 117.801 233.676 116.069C233.787 114.337 235.281 113.023 237.013 113.134C243.566 113.552 258.981 114.384 268.425 114.384C274.218 114.384 282.247 113.664 289.646 112.961C290.237 112.905 290.824 112.849 291.405 112.793C294.426 112.505 297.287 112.232 299.734 112.035C302.583 111.805 305.105 111.657 306.696 111.75C308.428 111.852 309.75 113.339 309.648 115.072C309.546 116.804 308.059 118.126 306.327 118.024C305.247 117.961 303.165 118.063 300.238 118.299C297.843 118.492 295.038 118.76 292.016 119.048C291.432 119.104 290.839 119.161 290.24 119.217Z" fill="white"/>
<path fill-rule="evenodd" clip-rule="evenodd" d="M265.578 169.371C247.327 170.063 226.95 170.798 212.063 170.798C188.313 170.798 149.808 169.967 133.535 169.551C131.8 169.507 130.429 168.065 130.474 166.33C130.518 164.595 131.96 163.224 133.695 163.268C149.965 163.684 188.4 164.513 212.063 164.513C226.808 164.513 247.058 163.784 265.34 163.091C266.844 163.034 268.335 162.977 269.809 162.921C286.165 162.297 300.452 161.752 306.648 161.898C308.383 161.939 309.756 163.378 309.716 165.113C309.675 166.848 308.235 168.222 306.5 168.181C300.511 168.04 286.405 168.578 269.877 169.207C268.46 169.261 267.026 169.316 265.578 169.371Z" fill="white"/>
<path fill-rule="evenodd" clip-rule="evenodd" d="M291.498 131.159C284.175 131.854 275.832 132.611 269.683 132.611C260.021 132.611 244.431 131.766 237.87 131.347C236.138 131.237 234.824 129.743 234.934 128.011C235.045 126.279 236.539 124.964 238.271 125.075C244.824 125.494 260.239 126.326 269.683 126.326C275.476 126.326 283.504 125.605 290.904 124.902C291.495 124.846 292.082 124.79 292.663 124.734C295.684 124.446 298.545 124.173 300.991 123.976C303.841 123.746 306.363 123.598 307.954 123.692C309.686 123.793 311.008 125.281 310.906 127.013C310.804 128.746 309.317 130.067 307.585 129.966C306.505 129.902 304.423 130.005 301.496 130.241C299.1 130.434 296.295 130.701 293.274 130.99C292.689 131.045 292.097 131.102 291.498 131.159Z" fill="white"/>
<path fill-rule="evenodd" clip-rule="evenodd" d="M268.721 181.312C250.469 182.005 230.093 182.74 215.205 182.74C191.456 182.74 152.951 181.908 136.677 181.493C134.943 181.448 133.572 180.006 133.616 178.271C133.661 176.536 135.103 175.166 136.838 175.21C153.108 175.625 191.543 176.455 215.205 176.455C229.95 176.455 250.201 175.726 268.483 175.032C269.986 174.975 271.477 174.918 272.952 174.862C289.308 174.238 303.594 173.694 309.79 173.839C311.525 173.88 312.899 175.32 312.858 177.055C312.817 178.79 311.378 180.163 309.643 180.122C303.654 179.982 289.547 180.519 273.019 181.149C271.603 181.203 270.169 181.257 268.721 181.312Z" fill="white"/>
<path fill-rule="evenodd" clip-rule="evenodd" d="M291.498 143.1C284.175 143.795 275.832 144.551 269.683 144.551C260.021 144.551 244.431 143.707 237.87 143.288C236.138 143.177 234.824 141.684 234.934 139.952C235.045 138.22 236.539 136.905 238.271 137.016C244.824 137.435 260.239 138.267 269.683 138.267C275.476 138.267 283.504 137.546 290.904 136.843C291.495 136.787 292.082 136.731 292.663 136.675C295.684 136.387 298.545 136.114 300.991 135.917C303.841 135.687 306.363 135.539 307.954 135.632C309.686 135.734 311.008 137.221 310.906 138.954C310.804 140.686 309.317 142.008 307.585 141.906C306.505 141.843 304.423 141.946 301.496 142.182C299.1 142.375 296.295 142.642 293.274 142.931C292.689 142.986 292.097 143.043 291.498 143.1Z" fill="white"/>
<path fill-rule="evenodd" clip-rule="evenodd" d="M268.721 193.254C250.469 193.946 230.093 194.681 215.205 194.681C191.456 194.681 152.951 193.849 136.677 193.434C134.943 193.39 133.572 191.947 133.616 190.213C133.661 188.478 135.103 187.107 136.838 187.151C153.108 187.567 191.543 188.396 215.205 188.396C229.95 188.396 250.201 187.667 268.483 186.973C269.986 186.916 271.477 186.86 272.952 186.803C289.308 186.18 303.594 185.635 309.79 185.781C311.525 185.821 312.899 187.261 312.858 188.996C312.817 190.731 311.378 192.105 309.643 192.064C303.654 191.923 289.547 192.461 273.019 193.09C271.603 193.144 270.169 193.199 268.721 193.254Z" fill="white"/>
<path fill-rule="evenodd" clip-rule="evenodd" d="M165.112 207.477C165.281 207.515 165.71 207.619 166.055 207.943C166.356 208.226 166.514 208.592 166.592 208.785C166.691 209.031 166.777 209.312 166.853 209.603C167.006 210.189 167.152 210.935 167.288 211.768C167.561 213.44 167.814 215.576 168.016 217.73C168.218 219.886 168.371 222.084 168.442 223.885C168.477 224.785 168.493 225.598 168.482 226.264C168.472 226.887 168.44 227.502 168.338 227.933C168.193 228.552 167.762 228.93 167.466 229.132C167.151 229.347 166.785 229.502 166.437 229.619C165.733 229.857 164.83 230.032 163.845 230.162C161.857 230.426 159.283 230.543 156.71 230.531C154.135 230.519 151.507 230.377 149.407 230.11C148.361 229.977 147.408 229.808 146.644 229.595C146.263 229.489 145.893 229.362 145.57 229.207C145.272 229.063 144.882 228.835 144.593 228.462C144.268 228.041 144.074 227.481 143.942 227.006C143.797 226.485 143.674 225.864 143.569 225.19C143.358 223.839 143.198 222.161 143.077 220.401C142.835 216.876 142.743 212.913 142.733 210.338L142.728 209.107L143.951 208.96C147.282 208.561 152.335 208.012 156.67 207.663C158.834 207.489 160.842 207.363 162.373 207.332C163.134 207.317 163.811 207.325 164.343 207.368C164.606 207.389 164.873 207.422 165.112 207.477ZM145.509 211.561C145.539 214.029 145.635 217.283 145.836 220.212C145.955 221.939 146.108 223.527 146.301 224.763C146.398 225.383 146.501 225.888 146.606 226.265C146.67 226.496 146.723 226.635 146.755 226.708C146.759 226.71 146.764 226.712 146.768 226.715C146.893 226.775 147.094 226.85 147.386 226.931C147.967 227.093 148.773 227.242 149.756 227.367C151.714 227.616 154.224 227.754 156.723 227.765C159.225 227.777 161.663 227.662 163.482 227.421C164.4 227.299 165.098 227.153 165.552 227C165.603 226.982 165.649 226.966 165.688 226.95C165.701 226.774 165.712 226.533 165.717 226.22C165.726 225.624 165.713 224.866 165.679 223.994C165.61 222.252 165.461 220.105 165.262 217.988C165.064 215.868 164.818 213.801 164.558 212.213C164.428 211.416 164.299 210.767 164.178 210.303C164.161 210.238 164.144 210.178 164.129 210.125C164.126 210.124 164.123 210.124 164.121 210.124C163.725 210.092 163.156 210.083 162.428 210.097C160.981 210.126 159.039 210.247 156.892 210.419C153.107 210.724 148.754 211.184 145.509 211.561ZM164.531 210.182C164.53 210.183 164.518 210.18 164.498 210.173C164.522 210.178 164.532 210.182 164.531 210.182ZM164.007 209.772C164.001 209.761 163.998 209.755 163.998 209.755C163.998 209.754 164.001 209.759 164.007 209.772ZM165.908 226.847C165.907 226.848 165.907 226.848 165.906 226.849C165.914 226.842 165.916 226.842 165.908 226.847ZM146.678 226.665C146.679 226.665 146.68 226.666 146.682 226.667C146.679 226.666 146.678 226.665 146.678 226.665ZM164.985 237.942C165.522 237.909 166.045 237.891 166.4 237.933C167.039 238.008 167.46 238.397 167.696 238.696C167.935 238.999 168.102 239.353 168.224 239.676C168.47 240.329 168.651 241.17 168.791 242.072C169.074 243.897 169.238 246.281 169.332 248.654C169.495 252.737 169.461 256.95 169.447 258.541C169.445 258.804 169.444 258.996 169.444 259.103C169.444 260 168.743 260.451 168.534 260.574C168.23 260.754 167.874 260.876 167.551 260.966C166.884 261.152 165.994 261.298 164.998 261.413C162.988 261.647 160.321 261.782 157.617 261.806C154.911 261.829 152.123 261.742 149.87 261.522C148.747 261.412 147.723 261.266 146.895 261.074C146.481 260.978 146.087 260.863 145.74 260.723C145.416 260.592 145.023 260.395 144.709 260.081C144.284 259.656 144.029 259.073 143.858 258.573C143.674 258.035 143.527 257.401 143.405 256.721C143.161 255.36 142.998 253.679 142.89 251.926C142.673 248.414 142.67 244.472 142.733 241.911L142.762 240.744L143.918 240.577C147.254 240.094 152.366 239.383 156.861 238.817C159.108 238.534 161.209 238.287 162.86 238.122C163.685 238.04 164.408 237.977 164.985 237.942ZM145.475 243.147C145.441 245.595 145.47 248.839 145.65 251.756C145.755 253.464 145.911 255.025 146.127 256.234C146.236 256.84 146.354 257.324 146.475 257.679C146.56 257.928 146.627 258.054 146.656 258.105C146.682 258.118 146.721 258.137 146.778 258.16C146.945 258.227 147.189 258.303 147.52 258.38C148.182 258.534 149.073 258.666 150.139 258.77C152.264 258.978 154.948 259.064 157.592 259.04C160.238 259.017 162.799 258.885 164.679 258.667C165.548 258.566 166.224 258.452 166.683 258.335C166.697 256.611 166.724 252.635 166.569 248.765C166.476 246.417 166.317 244.161 166.058 242.497C165.93 241.672 165.788 241.063 165.646 240.678C165.507 240.683 165.343 240.691 165.155 240.702C164.627 240.735 163.943 240.793 163.134 240.874C161.518 241.035 159.445 241.279 157.207 241.561C153.227 242.062 148.756 242.678 145.475 243.147ZM163.011 270.992C164.529 271.031 165.862 271.105 166.559 271.27C167.564 271.51 168.052 272.356 168.285 272.963C168.535 273.615 168.658 274.404 168.716 275.205C168.834 276.827 168.712 278.88 168.484 280.901C168.255 282.937 167.913 285.007 167.566 286.691C167.393 287.532 167.216 288.288 167.049 288.901C166.893 289.476 166.716 290.036 166.524 290.408C166.29 290.86 165.908 291.134 165.645 291.29C165.356 291.462 165.027 291.598 164.698 291.709C164.039 291.933 163.209 292.114 162.302 292.261C160.476 292.555 158.152 292.738 155.824 292.782C153.498 292.826 151.112 292.733 149.168 292.459C148.199 292.323 147.294 292.135 146.545 291.877C145.86 291.641 145.039 291.259 144.554 290.566C144.226 290.097 144.036 289.511 143.911 288.969C143.78 288.4 143.692 287.744 143.633 287.047C143.514 285.65 143.505 283.967 143.557 282.229C143.661 278.748 144.017 274.919 144.314 272.451L144.455 271.275L145.638 271.234C148.632 271.129 153.254 271.003 157.397 270.966C159.468 270.947 161.429 270.951 163.011 270.992ZM146.925 273.957C146.67 276.314 146.407 279.446 146.321 282.312C146.27 284.003 146.283 285.568 146.388 286.814C146.441 287.437 146.515 287.952 146.606 288.348C146.651 288.545 146.697 288.698 146.74 288.81C146.762 288.866 146.78 288.908 146.795 288.937C146.801 288.949 146.806 288.958 146.81 288.965C146.82 288.967 146.965 289.097 147.447 289.263C147.962 289.44 148.674 289.597 149.553 289.721C151.304 289.967 153.533 290.059 155.771 290.017C158.008 289.975 160.197 289.799 161.861 289.531C162.699 289.395 163.358 289.243 163.811 289.09C163.958 289.04 164.065 288.996 164.14 288.961C164.197 288.803 164.28 288.547 164.381 288.175C164.528 287.633 164.692 286.936 164.858 286.133C165.188 284.526 165.517 282.539 165.736 280.592C165.957 278.63 166.058 276.775 165.958 275.406C165.908 274.711 165.811 274.234 165.703 273.953C165.699 273.941 165.694 273.93 165.69 273.919C165.211 273.851 164.28 273.79 162.94 273.756C161.404 273.717 159.479 273.713 157.422 273.731C153.825 273.763 149.856 273.863 146.925 273.957ZM165.626 273.792C165.626 273.791 165.629 273.795 165.636 273.806C165.629 273.797 165.625 273.792 165.626 273.792ZM164.262 288.894C164.262 288.894 164.258 288.897 164.249 288.903C164.257 288.896 164.261 288.893 164.262 288.894ZM165.208 300.104C165.406 300.142 165.817 300.232 166.166 300.514C166.529 300.808 166.716 301.211 166.81 301.436C166.924 301.711 167.017 302.023 167.094 302.342C167.251 302.984 167.383 303.796 167.495 304.694C167.721 306.5 167.882 308.79 167.973 311.063C168.065 313.337 168.087 315.624 168.03 317.426C168.001 318.324 167.952 319.126 167.878 319.755C167.841 320.068 167.794 320.366 167.732 320.626C167.686 320.821 167.584 321.216 167.33 321.543C167.02 321.942 166.573 322.12 166.384 322.192C166.121 322.293 165.818 322.374 165.509 322.443C164.884 322.582 164.08 322.703 163.178 322.807C161.365 323.018 159.028 323.179 156.657 323.278C154.282 323.377 151.848 323.415 149.835 323.376C148.829 323.357 147.915 323.318 147.16 323.256C146.443 323.197 145.755 323.109 145.269 322.955C144.491 322.709 144.032 322.061 143.772 321.589C143.484 321.068 143.259 320.429 143.074 319.758C142.703 318.405 142.43 316.659 142.227 314.819C141.821 311.122 141.675 306.818 141.665 303.982L141.66 302.805L142.822 302.613C146.321 302.035 151.639 301.221 156.223 300.658C158.511 300.377 160.639 300.155 162.273 300.059C163.086 300.011 163.81 299.992 164.384 300.017C164.668 300.03 164.952 300.055 165.208 300.104ZM144.441 305.15C144.483 307.855 144.636 311.424 144.976 314.516C145.173 316.307 145.427 317.883 145.741 319.026C145.899 319.602 146.056 320.004 146.193 320.253C146.217 320.297 146.238 320.331 146.255 320.357C146.468 320.402 146.837 320.455 147.387 320.5C148.063 320.555 148.915 320.593 149.888 320.611C151.833 320.649 154.21 320.612 156.541 320.515C158.875 320.418 161.138 320.26 162.859 320.061C163.723 319.96 164.419 319.852 164.908 319.744C164.977 319.728 165.04 319.713 165.095 319.699C165.107 319.621 165.119 319.531 165.131 319.43C165.193 318.914 165.238 318.201 165.266 317.338C165.32 315.619 165.3 313.401 165.21 311.174C165.121 308.944 164.964 306.737 164.751 305.037C164.645 304.182 164.528 303.49 164.408 302.998C164.388 302.918 164.37 302.847 164.352 302.785C164.323 302.783 164.293 302.781 164.261 302.78C163.828 302.761 163.214 302.774 162.436 302.819C160.89 302.911 158.83 303.124 156.56 303.403C152.51 303.9 147.865 304.598 144.441 305.15ZM164.733 302.831C164.732 302.831 164.723 302.829 164.707 302.824C164.725 302.828 164.733 302.83 164.733 302.831ZM164.24 302.46C164.233 302.448 164.23 302.441 164.23 302.441C164.23 302.441 164.233 302.446 164.24 302.46ZM165.018 320.069C165.018 320.069 165.02 320.062 165.025 320.051C165.021 320.064 165.019 320.069 165.018 320.069ZM165.423 319.599C165.441 319.589 165.452 319.584 165.453 319.584C165.455 319.584 165.446 319.589 165.423 319.599ZM146.311 320.431C146.31 320.431 146.309 320.429 146.305 320.425C146.309 320.429 146.311 320.431 146.311 320.431Z" fill="white"/>
<path d="M155.806 225.227C157.415 224.775 163.264 209.997 165.988 202.665C165.778 201.282 165.12 198.743 164.165 199.648C163.21 200.553 157.608 212.93 154.926 219.005C154.738 218.67 154.147 217.648 153.292 216.24C152.224 214.48 148.264 213.098 147.447 214.292C146.63 215.486 153.795 225.793 155.806 225.227Z" fill="#116A5F"/>
<path d="M335.989 151.818C344.385 151.466 349.25 148.236 350.632 146.665C353.398 133.802 350.834 105.511 318.454 95.2546C277.98 82.4335 255.417 133.152 245.236 147.984C235.054 162.817 223.679 159.863 196.151 195.498C168.623 231.133 166.738 278.583 178.679 305.231C190.62 331.879 294.572 384.735 321.534 390.705C348.496 396.676 357.42 365.44 366.47 290.085C373.71 229.801 345.479 201.908 330.458 195.498C329.222 194.115 328.346 191.312 334.732 191.161C341.117 191.01 349.082 196.587 352.267 199.394C356.373 195.561 364.962 185.957 366.47 178.215C368.356 168.536 363.202 165.456 346.107 159.863C332.432 155.388 306.052 151.253 294.572 149.744C295.326 148.718 297.953 145.885 302.428 142.768C306.903 139.651 312.798 140.086 315.186 140.694L318.454 146.665C320.8 148.529 327.592 152.17 335.989 151.818Z" fill="#D53863"/>
<g opacity="0.5">
<path d="M252.904 254.575C255.719 237.128 267.359 222.669 272.827 217.62C268.72 218.018 257.039 223.503 243.162 242.257C225.816 265.699 227.764 295.364 229.901 307.682C232.038 320 234.677 339.421 238.7 339.672C242.722 339.923 235.117 318.555 232.541 301.272C229.964 283.988 241.088 271.67 245.11 270.727C249.133 269.784 245.802 288.513 245.11 301.272C244.419 314.03 244.168 319.749 249.133 320C254.098 320.252 249.384 276.384 252.904 254.575Z" fill="white"/>
<path d="M347.239 222.585C335.675 203.63 315.228 202.704 306.45 204.611C309.237 205.051 316.531 206.282 323.419 207.69C332.03 209.45 333.978 215.043 333.978 217.62C333.978 220.197 331.087 220.26 325.871 227.802C320.654 235.344 310.033 257.655 304.125 265.511C298.217 273.367 287.533 279.463 294.823 279.715C302.114 279.966 308.336 266.202 321.408 244.645C334.481 223.088 333.978 231.635 345.102 237.292C356.226 242.948 347.239 296.558 347.239 304.1C347.239 311.642 338.692 334.958 339.886 335.147C341.08 335.335 347.239 310.07 350.759 301.272C354.278 292.473 361.694 246.279 347.239 222.585Z" fill="white"/>
</g>
<path d="M187.792 264.443C201.216 251.571 223.636 234.61 233.168 227.739C245.633 220.826 270.777 203.832 271.632 191.161C272.7 175.323 246.241 189.276 241.339 174.821C236.436 160.366 270.249 109.081 267.546 98.7112C264.844 88.3412 247.875 91.3579 238.071 96.8257C228.266 102.294 226.381 148.613 187.792 183.054C149.203 217.495 155.299 290.525 162.967 296.621C170.634 302.717 171.011 280.532 187.792 264.443Z" fill="#C52954"/>
<path d="M261.763 362.235C273.377 383.05 288.515 387.877 294.633 387.689C295.973 380.147 295.425 359.759 282.503 338.541C269.581 317.323 247.413 309.379 237.943 308.06C241.044 317.445 250.149 341.42 261.763 362.235Z" fill="#54C9BA"/>
<path d="M292.37 387.437C292.119 381.069 287.958 363.656 273.327 344.952C258.696 326.248 249.759 319.226 247.119 318.053" stroke="#92FFF1" stroke-width="10" stroke-linecap="round"/>
<path d="M214.501 374.113C250.953 397.594 282.524 392.612 293.753 387.186C283.99 371.327 256.722 337.435 225.751 328.737C194.779 320.039 166.505 325.113 156.24 328.737C160.472 334.079 178.049 350.633 214.501 374.113Z" fill="#1A9787"/>
<path d="M171.512 333.702C182.573 333.387 212.024 336.052 241.336 349.225C270.649 362.398 280.281 372.102 281.434 375.307" stroke="#55C9BA" stroke-width="13" stroke-linecap="round"/>
<path d="M318.337 189.379C319.969 190.374 319.606 194.215 319.221 196.011C318.926 197.853 317.834 201.219 315.822 199.948C313.81 198.677 313.307 192.373 313.307 189.379C314.304 188.965 316.706 188.385 318.337 189.379Z" fill="#FEAAA9"/>
<ellipse cx="315.126" cy="196.308" rx="3.58855" ry="6.11023" transform="rotate(-5.43488 315.126 196.308)" fill="#116A5F"/>
<path d="M369.843 395.624C369.68 394.647 370.725 391.554 371.268 390.129H376.492C376.266 391.011 375.678 393.277 375.135 395.285C374.457 397.796 370.047 396.846 369.843 395.624Z" fill="#FEAAA9"/>
<path d="M394.539 397.117L395.014 390.807L399.492 390.672L398.746 396.981C398.452 397.253 397.606 397.782 396.575 397.728C395.543 397.673 394.788 397.298 394.539 397.117Z" fill="#FEAAA9"/>
<path d="M393.675 391.961H401.061C401.558 390.228 402.971 381.729 404.652 361.599C406.332 341.468 405.352 310.14 404.652 296.992C403.003 297.154 398.5 297.38 393.675 296.992C388.851 296.604 379.333 294.196 375.178 293.041C375.494 300.805 375.936 321.573 375.178 342.536C374.419 363.498 371.338 384.22 369.893 391.961H378.294C379.175 389.766 381.371 383.171 383.105 374.353C384.84 365.536 388.932 337.868 390.762 325.136C391.507 331.005 393.133 344.393 393.675 350.993C394.217 357.592 393.901 381.054 393.675 391.961Z" fill="#1A9787"/>
<path d="M377.306 404.038C378.066 402.844 376.99 397.615 376.357 395.15C375.746 394.675 374.009 393.698 371.947 393.589C369.368 393.454 368.147 394.064 366.79 394.607C365.433 395.15 347.861 404.038 347.59 405.191C347.318 406.345 376.357 405.53 377.306 404.038Z" fill="#116A5F"/>
<path d="M389.994 404.038C389.234 402.409 392.391 397.434 394.064 395.15C395.489 394.969 398.705 394.838 400.171 395.761C402.002 396.914 403.291 403.156 401.527 405.191C399.763 407.227 390.943 406.073 389.994 404.038Z" fill="#116A5F"/>
<path d="M392.307 298.408C383.955 297.807 377.529 295.514 375.359 294.444L365.123 248.101L341.668 240.172L349.193 224.109C350.142 224.406 353.735 225.367 360.513 226.843C368.987 228.689 390.612 227.254 403.357 231.491C413.552 234.882 420.756 250.174 423.083 257.397C422.066 257.215 419.355 256.959 416.643 257.397C413.932 257.834 410.587 259.356 409.254 260.063L405.797 254.321V298.408C404.78 298.659 400.659 299.01 392.307 298.408Z" fill="#54C9BA"/>
<path d="M380.175 235.479C371.614 233.729 373.337 221.152 375.268 215.082L384.674 209.455L388.491 227.508C389.286 230.894 388.736 237.23 380.175 235.479Z" fill="#EF9492"/>
<path d="M367.324 219.594C363.112 215.528 370.699 202.491 375.019 196.48C377.202 196.207 383.011 196.874 388.789 201.726C396.011 207.791 385.684 219.594 384.334 220.249C382.984 220.905 372.589 224.675 367.324 219.594Z" fill="#FEAAA9"/>
<path d="M352.407 237.136V240.257H348.336L349.489 245.82L365.162 246.295L364.483 241.274L361.227 240.935V238.696L352.407 237.136Z" fill="#B8F5EE"/>
<path d="M339.652 241.953H349.015L374.661 243.989L383.617 280.49L359.463 279.743L339.652 241.953Z" fill="#1A9787"/>
<path d="M381.105 257.151C383.982 257.965 384.159 262.601 383.887 264.817C385.809 266.514 391.839 269.906 400.577 269.906C409.316 269.906 410.144 263.302 409.465 260C409.465 260 412.45 257.946 414.602 257.151C417.572 256.053 422.627 255.997 422.627 255.997C423.962 260.837 423.686 271.86 411.908 277.233C400.13 282.607 387.913 274.587 383.277 269.906C382.869 269.951 381.58 269.906 379.681 269.363C377.781 268.82 376.175 266.966 375.61 266.106L374.524 267.735C373.982 267.192 372.693 265.849 371.878 264.817C371.064 263.786 371.539 262.352 371.878 261.764C370.974 261.38 369.409 260.326 370.386 259.186C371.607 257.761 377.51 256.133 381.105 257.151Z" fill="#FEAAA9"/>
<path d="M313.056 196.632C314.196 198.64 315.204 201.178 315.566 202.195C316.493 204.728 319.61 212.318 324.657 222.414C329.705 232.509 338.973 238.47 342.976 240.189L350.303 224.449C348.313 224.064 341.633 221.694 330.831 215.29C320.03 208.885 318.597 199.595 319.23 195.75C318.664 196.044 317.452 196.686 317.127 196.903C316.719 197.175 313.802 193.647 313.056 193.308C312.31 192.968 311.631 194.122 313.056 196.632Z" fill="#FEAAA9"/>
<path d="M386.58 211.083C385.495 210.323 384.228 210.767 383.731 211.083C383.211 211.513 382.075 212.182 381.696 211.422C381.221 210.472 386.58 206.605 386.173 205.113C385.766 203.62 381.628 202.534 377.082 201.313C372.536 200.092 371.79 196.7 373.554 193.579C375.318 190.458 381.017 191.815 386.58 193.579C392.144 195.343 389.43 199.889 391.737 200.499C394.044 201.11 395.197 204.638 393.501 209.183C392.144 212.82 386.874 217.755 384.409 219.767C384.319 219.225 384.409 217.786 385.495 216.375C386.852 214.611 387.937 212.033 386.58 211.083Z" fill="#116A5F"/>
<path fill-rule="evenodd" clip-rule="evenodd" d="M321.225 223.961C316.839 216.033 314.695 207.414 314.191 201.769L315.273 201.673C315.764 207.178 317.867 215.649 322.175 223.435C326.482 231.221 332.957 238.26 342.162 241.027C351.419 243.809 358.246 242.348 363.023 239.451C367.658 236.64 370.409 232.45 371.568 229.346C371.115 228.898 370.543 228.257 370.044 227.549C369.458 226.716 368.906 225.694 368.874 224.74C368.817 223.107 369.083 221.749 369.235 221.241L370.275 221.552C370.156 221.948 369.906 223.187 369.958 224.702C369.98 225.322 370.367 226.121 370.932 226.924C371.42 227.618 371.991 228.245 372.413 228.655C374.682 228.601 379.021 227.351 381.343 222.518C383.597 217.827 383.978 215.693 384.067 215.194C384.073 215.161 384.078 215.135 384.081 215.116L385.146 215.329C385.141 215.352 385.136 215.382 385.129 215.419C385.026 215.981 384.622 218.201 382.321 222.988C379.826 228.181 375.184 229.625 372.581 229.735C371.346 233.037 368.451 237.429 363.586 240.379C358.523 243.45 351.374 244.929 341.85 242.067C332.276 239.189 325.611 231.889 321.225 223.961Z" fill="#1A9787"/>
<path d="M104.947 224.313V206.945L96.1949 203.62L90.9707 224.856C91.7396 225.399 94.1323 226.498 97.5518 226.552C100.971 226.606 104.495 225.647 104.947 224.313Z" fill="#EF9392"/>
<path d="M97.0094 399.288H106.304V397.863L101.419 394.267C101.51 394.629 101.636 395.489 101.419 396.031C101.148 396.71 97.5521 394.878 93.4814 391.621C90.2248 389.016 89.1845 385.741 89.0714 384.43C87.9632 384.927 85.7062 386.479 85.5433 388.704C85.3805 390.929 86.4706 396.959 87.036 399.695L89.0714 400.034C88.6191 397.728 88.2301 392.978 90.2926 392.436C92.3551 391.893 95.6298 396.778 97.0094 399.288Z" fill="#1A9787"/>
<path d="M38.6617 399.084H48.9743L50.1955 389.857L42.6646 388.704C41.8731 389.631 40.0593 391.988 39.1366 393.996C38.2139 396.004 38.4355 398.225 38.6617 399.084Z" fill="#1A9787"/>
<path d="M83.1687 332.731C91.0932 333.165 97.733 332.912 100.062 332.731C101.759 320.994 105.639 295.483 107.593 287.342C109.547 279.2 108.407 271.104 107.593 268.074L89.7498 266.31C87.9406 267.124 83.7658 269.186 81.5404 270.923C78.7587 273.094 76.1127 280.15 75.5021 295.958C75.0136 308.605 68.9663 323.572 66.0037 329.474C68.4235 330.379 75.2443 332.297 83.1687 332.731Z" fill="#1A9787"/>
<path d="M95.3809 375.067C95.1095 366.274 97.6194 343.745 99.112 332.799C99.112 332.799 95.7907 332.934 93.6843 332.934H88.3245C86.945 335.739 85.4075 339.529 84.8648 342.569C84.1863 346.368 89.4783 378.391 89.6818 381.241C89.8854 384.09 87.9178 385.38 87.9857 387.008C88.0535 388.636 93.0742 392.503 97.8234 395.896C102.511 399.244 102.506 396.247 102.505 395.712L102.505 395.692C102.505 395.312 98.1626 389.609 95.9915 386.804C95.9011 386.556 95.6522 383.86 95.3809 375.067Z" fill="#FEAAA9"/>
<path d="M56.5051 370.521C60.0874 361.946 71.0011 342.094 76.9263 331.985C76.9263 331.985 73.9258 331.541 72.1771 331.17C70.4284 330.8 67.9707 330.085 67.9707 330.085C64.6914 332.844 58.9069 336.829 57.3871 340.737C55.4875 345.622 52.2308 361.973 49.1777 373.439C46.1246 384.905 42.1891 387.279 42.5283 389.857C42.8676 392.436 47.4815 393.114 49.1777 392.3C50.8739 391.486 52.0272 381.241 56.5051 370.521Z" fill="#FEAAA9"/>
<path d="M67.1576 255.861C66.9405 245.495 77.425 234.897 82.6944 230.894L91.0395 239.103C87.8507 241.501 79.6956 248.263 77.7416 255.047C75.7876 261.832 77.5607 268.503 78.6915 270.991C80.0258 270.584 83.1015 269.865 84.7298 270.245C86.7651 270.72 89.2076 280.965 87.3758 281.711C85.5439 282.457 67.429 268.82 67.1576 255.861Z" fill="#FEAAA9"/>
<path d="M88.7328 237.068C87.5387 235.711 83.6217 232.704 81.8125 231.369L91.5823 224.517C92.2608 225.014 94.5947 225.969 98.5027 225.806C102.411 225.643 104.518 221.758 105.084 219.835C109.494 223.68 118.504 232.509 119.264 237.068C120.023 241.628 111.484 260.136 107.119 268.82L89.954 267.056C90.4968 264.456 91.5823 258.114 91.5823 253.555C91.5823 248.996 89.3208 243.559 88.19 241.411C88.8685 240.529 89.9269 238.425 88.7328 237.068Z" fill="#54C9BA"/>
<path d="M97.1459 207.216C103.171 211.775 109.607 210.337 112.072 209.048C112.615 207.51 113.375 202.847 112.072 196.496C110.444 188.558 105.559 185.098 96.196 188.355C86.8333 191.612 89.615 201.517 97.1459 207.216Z" fill="#FEAAA9"/>
<path d="M93.4139 197.989C92.9254 195.329 96.4217 196.247 98.2309 197.039C98.6606 195.591 100.714 192.615 105.49 192.29C111.461 191.883 110.579 190.458 110.647 187.54C110.715 184.623 108.679 182.656 105.015 179.602C101.352 176.549 103.523 179.467 98.2309 179.602C92.939 179.738 88.9116 179.554 85.7471 184.962C82.0155 191.34 85.1366 194.868 83.5761 200.974C82.0156 207.08 70.1425 209.726 67.7679 215.764C60.8041 233.472 80.8396 226.032 83.0333 230.555L90.9713 224.991L95.5849 206.13C96.4669 205.61 97.9595 204.502 96.8739 204.231C95.517 203.891 94.0245 201.313 93.4139 197.989Z" fill="#004D43"/>
</svg>
