<svg width="24" height="24" viewBox="0 0 24 24" fill="none" xmlns="http://www.w3.org/2000/svg">
<path d="M14.0977 4.68245H18.8031C21.1185 4.68245 22.9961 6.55841 22.998 8.87387L23.0002 11.4409" stroke="#1A9787" stroke-width="2" stroke-miterlimit="10" stroke-linecap="round" stroke-linejoin="round"/>
<path d="M17.0338 0.999901L14.6017 3.41039C13.8671 4.13849 13.8671 5.31893 14.6017 6.04703L17.0338 8.45752" stroke="#1A9787" stroke-width="2" stroke-miterlimit="10" stroke-linecap="round" stroke-linejoin="round"/>
<path d="M8.50435 19.5043C7.77518 18.9452 7.04517 18.3225 6.36135 17.6387V17.6388C2.91141 14.1888 1.01736 10.0198 1.00012 6.56939C0.99047 4.63279 1.57207 2.92262 2.8016 1.69304L2.8284 1.66904C3.8761 0.728587 5.48038 0.786431 6.45765 1.79992C8.41574 3.83058 9.59395 5.86125 7.623 7.87933L5.89246 9.62278C5.89246 9.62278 6.8969 11.8783 9.44788 14.4293L9.57088 14.5521C12.1219 17.1031 14.3774 18.1075 14.3774 18.1075L16.1208 16.377C18.1389 14.406 20.1696 15.5843 22.2002 17.5423C23.2137 18.5197 23.2716 20.1239 22.3311 21.1716L22.3071 21.1984C21.0775 22.428 19.3673 23.0096 17.4307 22.9999C15.8777 22.9921 14.1792 22.5737 12.4662 21.8348" stroke="#1A9787" stroke-width="2" stroke-miterlimit="10" stroke-linecap="round" stroke-linejoin="round"/>
</svg>
