<svg width="22" height="22" viewBox="0 0 22 22" fill="none" xmlns="http://www.w3.org/2000/svg">
<path fill-rule="evenodd" clip-rule="evenodd" d="M15.1336 0.122443C15.6245 -0.0408144 16.1533 -0.0408144 16.6442 0.122443C16.9987 0.240038 17.2688 0.438947 17.4827 0.624096C17.677 0.792981 17.8884 1.01066 18.106 1.23208L20.2864 3.46513C20.5052 3.68905 20.7179 3.90548 20.8829 4.10564C21.0638 4.32331 21.2593 4.60104 21.3742 4.96383C21.5337 5.46631 21.5337 6.00758 21.3742 6.51007C21.2676 6.82662 21.1006 7.11834 20.8829 7.36826C20.7179 7.56842 20.5052 7.78484 20.2877 8.00752L20.2486 8.04755L9.06155 19.498H20.7778C21.1019 19.498 21.4128 19.6298 21.642 19.8644C21.8712 20.099 22 20.4172 22 20.749C22 21.0808 21.8712 21.399 21.642 21.6336C21.4128 21.8682 21.1019 22 20.7778 22H1.22222C0.898069 22 0.587192 21.8682 0.357981 21.6336C0.128769 21.399 0 21.0808 0 20.749V15.745C6.92235e-05 15.4132 0.128884 15.0951 0.358111 14.8605L10.1359 4.85249L13.6486 1.2571L13.6718 1.23333C13.8893 1.01066 14.1008 0.794232 14.2951 0.625347C14.5393 0.402512 14.8243 0.231566 15.1336 0.122443ZM11 7.50587L2.44444 16.2629V19.498H5.60511L14.1607 10.741L11 7.50587ZM15.8889 8.97204L18.5411 6.25737C18.7917 6.00091 18.9286 5.85955 19.019 5.74946L19.03 5.73695L19.019 5.72444C18.862 5.54597 18.699 5.37322 18.5301 5.20652L16.4034 3.02978C16.2414 2.8578 16.0734 2.69173 15.8999 2.53188L15.8889 2.52187C15.7107 2.68479 15.5382 2.8542 15.3719 3.02978L15.3658 3.03728L12.7282 5.73695L15.8889 8.97204Z" fill="white"/>
</svg>
