<svg width="50" height="51" viewBox="0 0 50 51" fill="none" xmlns="http://www.w3.org/2000/svg">
<path d="M0 7.74658C0 3.9712 3.02696 0.910645 6.76091 0.910645H42.6903C46.4242 0.910645 49.4512 3.9712 49.4512 7.74658V44.0747C49.4512 47.8501 46.4242 50.9106 42.6903 50.9106H6.76091C3.02696 50.9106 0 47.8501 0 44.0747V7.74658Z" fill="url(#paint0_linear_225_2850)"/>
<path d="M31.2932 14.7778C31.2932 18.4453 28.3527 21.4185 24.7255 21.4185C21.0982 21.4185 18.1577 18.4453 18.1577 14.7778C18.1577 11.1103 21.0982 8.13721 24.7255 8.13721C28.3527 8.13721 31.2932 11.1103 31.2932 14.7778Z" fill="white"/>
<path fill-rule="evenodd" clip-rule="evenodd" d="M37.4746 24.0063H28.3957V23.9087C28.3957 22.5603 29.4767 21.4673 30.8103 21.4673H38.199C39.5326 21.4673 40.6136 22.5603 40.6136 23.9087V31.477C40.6136 32.8254 39.5326 33.9185 38.199 33.9185H31.1001V41.2427C31.1001 42.591 30.019 43.6841 28.6854 43.6841H20.9104C19.5768 43.6841 18.4958 42.591 18.4958 41.2427V33.9185H11.2037C9.87012 33.9185 8.78906 32.8254 8.78906 31.477V23.9087C8.78906 22.5603 9.87012 21.4673 11.2037 21.4673H19.027C19.349 21.4998 20.1184 21.604 20.6206 21.7603C21.2484 21.9556 23.5665 22.981 24.6289 24.7876C25.3779 26.0612 25.6819 27.5548 25.7655 28.3594C26.9083 28.8022 27.7196 29.9217 27.7196 31.2329C27.7196 32.9318 26.3575 34.3091 24.6772 34.3091C22.9969 34.3091 21.6348 32.9318 21.6348 31.2329C21.6348 30.0811 22.2608 29.0772 23.1876 28.55C23.2109 28.0683 23.0676 27.0036 22.3109 25.9106C21.4996 24.7388 19.8802 24.1528 19.1719 24.0063H11.9763C11.6563 24.0063 11.3968 24.2687 11.3968 24.5923V30.7935C11.3968 31.1171 11.6563 31.3794 11.9763 31.3794H20.5241C20.8441 31.3794 21.1036 31.6417 21.1036 31.9653V40.5591C21.1036 40.8827 21.363 41.145 21.6831 41.145H27.8162C28.1362 41.145 28.3957 40.8827 28.3957 40.5591V31.9653C28.3957 31.6417 28.6551 31.3794 28.9752 31.3794H37.4746C37.7947 31.3794 38.0541 31.1171 38.0541 30.7935V24.5923C38.0541 24.2687 37.7947 24.0063 37.4746 24.0063ZM25.7879 31.2329C25.7879 31.8531 25.2906 32.356 24.6772 32.356C24.0638 32.356 23.5665 31.8531 23.5665 31.2329C23.5665 30.6127 24.0638 30.1099 24.6772 30.1099C25.2906 30.1099 25.7879 30.6127 25.7879 31.2329Z" fill="white"/>
<defs>
<linearGradient id="paint0_linear_225_2850" x1="49.4512" y1="0.910647" x2="-7.98888" y2="38.7993" gradientUnits="userSpaceOnUse">
<stop stop-color="#00B5A0"/>
<stop offset="1" stop-color="#116A5F"/>
</linearGradient>
</defs>
</svg>
