<svg width="250" height="45" viewBox="0 0 250 45" fill="none" xmlns="http://www.w3.org/2000/svg">
<path d="M11.3357 0.849121H13.3913V14.7051H11.5902V3.87765L7.1071 11.4193H6.87217L2.38903 3.89745V14.7051H0.568359V0.849121H2.62395L6.98963 8.17302L11.3357 0.849121Z" fill="#1A9787"/>
<path d="M25.5426 10.5483H17.3398C17.5094 11.4193 17.9075 12.1055 18.534 12.6069C19.1604 13.0952 19.9435 13.3393 20.8832 13.3393C22.1753 13.3393 23.115 12.8577 23.7023 11.8944L25.151 12.7257C24.1852 14.2169 22.7496 14.9625 20.8441 14.9625C19.304 14.9625 18.038 14.4742 17.0461 13.4977C16.0803 12.4948 15.5974 11.2477 15.5974 9.75656C15.5974 8.2522 16.0738 7.01175 17.0265 6.03523C17.9793 5.04552 19.2126 4.55066 20.7266 4.55066C22.1623 4.55066 23.3304 5.06531 24.2309 6.09462C25.1445 7.09753 25.6013 8.32478 25.6013 9.77636C25.6013 10.0271 25.5817 10.2844 25.5426 10.5483ZM20.7266 6.17379C19.8261 6.17379 19.0691 6.43112 18.4557 6.94577C17.8553 7.46042 17.4833 8.15982 17.3398 9.04397H23.8785C23.7349 8.13343 23.376 7.42743 22.8018 6.92598C22.2275 6.42452 21.5358 6.17379 20.7266 6.17379Z" fill="#1A9787"/>
<path d="M35.5949 4.80799V13.0622H36.9457V17.3576H35.2621V14.7051H27.9207V17.3576H26.2371V13.0622H27.4313C28.0578 12.1913 28.371 10.9706 28.371 9.40027V4.80799H35.5949ZM29.3694 13.0622H33.9113V6.41132H30.0546V9.40027C30.0546 10.8518 29.8262 12.0725 29.3694 13.0622Z" fill="#1A9787"/>
<path d="M40.4652 11.7558L45.888 4.80799H47.2584V14.7051H45.5748V7.75734L40.1519 14.7051H38.7815V4.80799H40.4652V11.7558Z" fill="#1A9787"/>
<path d="M58.0734 4.80799V13.0622H59.6787V17.3576H57.995V14.7051H49.851V4.80799H51.5542V13.0622H56.3702V4.80799H58.0734Z" fill="#1A9787"/>
<path d="M63.1776 11.7558L68.6005 4.80799H69.9709V14.7051H68.2872V7.75734L62.8644 14.7051H61.494V4.80799H63.1776V11.7558Z" fill="#1A9787"/>
<path d="M79.3371 8.9252V4.80799H81.0403V14.7051H79.3371V10.5681H74.2666V14.7051H72.5634V4.80799H74.2666V8.9252H79.3371Z" fill="#1A9787"/>
<path d="M88.2335 14.9625C86.7587 14.9625 85.5319 14.4676 84.553 13.4779C83.5742 12.475 83.0847 11.2345 83.0847 9.75656C83.0847 8.27859 83.5742 7.04474 84.553 6.05503C85.5319 5.05211 86.7587 4.55066 88.2335 4.55066C89.1993 4.55066 90.0672 4.78819 90.8372 5.26325C91.6073 5.72512 92.1815 6.35194 92.56 7.14371L91.1309 7.97508C90.8829 7.44723 90.4979 7.02495 89.9758 6.70824C89.4668 6.39153 88.8861 6.23318 88.2335 6.23318C87.2546 6.23318 86.4324 6.56968 85.7668 7.24269C85.1142 7.92889 84.7879 8.76685 84.7879 9.75656C84.7879 10.7331 85.1142 11.5644 85.7668 12.2506C86.4324 12.9237 87.2546 13.2602 88.2335 13.2602C88.8861 13.2602 89.4734 13.1084 89.9954 12.8049C90.5175 12.4882 90.9156 12.0659 91.1896 11.5381L92.6383 12.3892C92.2076 13.181 91.6007 13.8078 90.8177 14.2697C90.0346 14.7315 89.1732 14.9625 88.2335 14.9625Z" fill="#1A9787"/>
<path d="M97.7847 9.59821L102.62 14.7051H100.506L96.0423 10.0139V14.7051H94.3391V4.80799H96.0423V9.18253L100.271 4.80799H102.464L97.7847 9.59821Z" fill="#1A9787"/>
<path d="M105.888 11.7558L111.311 4.80799H112.681V14.7051H110.997V7.75734L105.574 14.7051H104.204V4.80799H105.888V11.7558Z" fill="#1A9787"/>
<path d="M122.165 3.32341H116.879V1.81904H122.165V3.32341ZM116.957 11.7558L122.38 4.80799H123.75V14.7051H122.067V7.75734L116.644 14.7051H115.274V4.80799H116.957V11.7558Z" fill="#1A9787"/>
<path d="M139.46 4.80799V13.0622H141.065V17.3576H139.381V14.7051H131.237V4.80799H132.94V13.0622H137.756V4.80799H139.46Z" fill="#1A9787"/>
<path d="M151.895 10.5483H143.692C143.862 11.4193 144.26 12.1055 144.886 12.6069C145.513 13.0952 146.296 13.3393 147.236 13.3393C148.528 13.3393 149.467 12.8577 150.055 11.8944L151.503 12.7257C150.538 14.2169 149.102 14.9625 147.196 14.9625C145.656 14.9625 144.39 14.4742 143.398 13.4977C142.433 12.4948 141.95 11.2477 141.95 9.75656C141.95 8.2522 142.426 7.01175 143.379 6.03523C144.332 5.04552 145.565 4.55066 147.079 4.55066C148.515 4.55066 149.683 5.06531 150.583 6.09462C151.497 7.09753 151.954 8.32478 151.954 9.77636C151.954 10.0271 151.934 10.2844 151.895 10.5483ZM147.079 6.17379C146.178 6.17379 145.421 6.43112 144.808 6.94577C144.208 7.46042 143.836 8.15982 143.692 9.04397H150.231C150.087 8.13343 149.728 7.42743 149.154 6.92598C148.58 6.42452 147.888 6.17379 147.079 6.17379Z" fill="#1A9787"/>
<path d="M160.685 8.9252V4.80799H162.388V14.7051H160.685V10.5681H155.615V14.7051H153.911V4.80799H155.615V8.9252H160.685Z" fill="#1A9787"/>
<path d="M163.885 4.80799H172.264V6.47071H168.935V14.7051H167.232V6.47071H163.885V4.80799Z" fill="#1A9787"/>
<path d="M179.159 4.55066C180.53 4.55066 181.698 5.05871 182.664 6.07482C183.63 7.09093 184.112 8.31818 184.112 9.75656C184.112 11.2081 183.63 12.442 182.664 13.4581C181.711 14.461 180.543 14.9625 179.159 14.9625C177.541 14.9625 176.308 14.3093 175.459 13.0028V18.664H173.756V4.80799H175.459V6.5103C176.308 5.20387 177.541 4.55066 179.159 4.55066ZM178.944 13.2997C179.923 13.2997 180.745 12.9632 181.411 12.2902C182.076 11.5908 182.409 10.7463 182.409 9.75656C182.409 8.75365 182.076 7.91569 181.411 7.24269C180.745 6.55648 179.923 6.21338 178.944 6.21338C177.952 6.21338 177.123 6.55648 176.458 7.24269C175.792 7.91569 175.459 8.75365 175.459 9.75656C175.459 10.7463 175.792 11.5908 176.458 12.2902C177.123 12.9632 177.952 13.2997 178.944 13.2997Z" fill="#1A9787"/>
<path d="M3.61585 26.331H6.72208L3.85078 31.2928L6.72208 36.2282H3.61585L0.744553 31.2928L3.61585 26.331ZM8.57537 26.331H11.6816L8.8103 31.2928L11.6816 36.2282H8.57537L5.70407 31.2928L8.57537 26.331Z" fill="#1A9787"/>
<path d="M22.2773 29.9468L29.2989 39.448H25.1486L18.6229 30.7913V39.448H15.0207V20.9733H18.6229V29.1286L24.8875 20.9733H29.0379L22.2773 29.9468Z" fill="#1A9787"/>
<path d="M31.7848 26.2518H42.1215V39.448H38.7542V29.5245H35.152V33.932C35.152 37.9965 33.3162 39.8351 29.6444 39.448V36.2546C30.3404 36.4305 30.8712 36.3073 31.2366 35.8851C31.6021 35.4628 31.7848 34.7502 31.7848 33.7473V26.2518Z" fill="#1A9787"/>
<path d="M48.4618 33.7473L54.5959 26.2518H57.1018V39.448H53.8129V31.9526L47.6787 39.448H45.1728V26.2518H48.4618V33.7473Z" fill="#1A9787"/>
<path d="M68.7487 31.24V26.2518H72.116V39.448H68.7487V34.4335H63.5543V39.448H60.187V26.2518H63.5543V31.24H68.7487Z" fill="#1A9787"/>
<path d="M78.4901 33.7473L84.6243 26.2518H87.1301V39.448H83.8412V31.9526L77.7071 39.448H75.2012V26.2518H78.4901V33.7473Z" fill="#1A9787"/>
<path d="M96.8455 32.7708L102.249 39.448H98.3333L93.5826 33.457V39.448H90.2154V26.2518H93.5826V32.0582L98.0723 26.2518H102.092L96.8455 32.7708Z" fill="#1A9787"/>
<path d="M112.905 27.809V26.2518H116.273V39.448H112.905V37.8909C111.896 39.1753 110.478 39.8175 108.651 39.8175C106.91 39.8175 105.414 39.1489 104.161 37.8117C102.925 36.4569 102.308 34.803 102.308 32.8499C102.308 30.9145 102.925 29.2694 104.161 27.9146C105.414 26.5597 106.91 25.8823 108.651 25.8823C110.478 25.8823 111.896 26.5245 112.905 27.809ZM106.693 35.542C107.372 36.2282 108.233 36.5713 109.277 36.5713C110.321 36.5713 111.183 36.2282 111.861 35.542C112.557 34.8382 112.905 33.9408 112.905 32.8499C112.905 31.759 112.557 30.8705 111.861 30.1843C111.183 29.4805 110.321 29.1286 109.277 29.1286C108.233 29.1286 107.372 29.4805 106.693 30.1843C106.014 30.8705 105.675 31.759 105.675 32.8499C105.675 33.9408 106.014 34.8382 106.693 35.542Z" fill="#1A9787"/>
<path d="M133.5 32.718C134.822 33.369 135.484 34.4159 135.484 35.8587C135.484 37.0199 135.014 37.9701 134.074 38.709C133.134 39.448 131.847 39.8175 130.211 39.8175C127.566 39.8175 125.765 38.7618 124.808 36.6504L127.548 35.0141C127.966 36.2106 128.862 36.8088 130.237 36.8088C130.863 36.8088 131.342 36.6856 131.673 36.4393C132.021 36.193 132.195 35.8587 132.195 35.4364C132.195 34.627 131.681 34.2223 130.655 34.2223H128.801V31.3192H130.211C131.22 31.3192 131.725 30.9145 131.725 30.1051C131.725 29.718 131.577 29.4101 131.281 29.1814C130.985 28.9527 130.594 28.8383 130.106 28.8383C128.993 28.8383 128.184 29.3925 127.679 30.501L124.964 28.9175C125.956 26.894 127.653 25.8823 130.054 25.8823C131.551 25.8823 132.734 26.2694 133.604 27.0436C134.492 27.8178 134.935 28.7415 134.935 29.8148C134.935 31.0992 134.457 32.067 133.5 32.718Z" fill="#1A9787"/>
<path d="M149.273 26.2518V36.2546H150.996V42.9846H147.707V39.448H139.615V42.9846H136.326V36.2546H137.918C138.666 35.1285 139.041 33.5713 139.041 31.5831V26.2518H149.273ZM141.52 36.2546H145.984V29.3133H142.329V31.5831C142.329 33.4833 142.06 35.0405 141.52 36.2546Z" fill="#1A9787"/>
<path d="M163.737 37.8117C162.414 39.1489 160.779 39.8175 158.83 39.8175C156.881 39.8175 155.245 39.1489 153.922 37.8117C152.6 36.4745 151.939 34.8206 151.939 32.8499C151.939 30.8969 152.6 29.2518 153.922 27.9146C155.262 26.5597 156.898 25.8823 158.83 25.8823C160.761 25.8823 162.397 26.5597 163.737 27.9146C165.077 29.2694 165.747 30.9145 165.747 32.8499C165.747 34.803 165.077 36.4569 163.737 37.8117ZM156.298 35.4628C156.976 36.149 157.82 36.4921 158.83 36.4921C159.839 36.4921 160.683 36.149 161.362 35.4628C162.04 34.7766 162.38 33.9056 162.38 32.8499C162.38 31.7942 162.04 30.9233 161.362 30.2371C160.683 29.5509 159.839 29.2078 158.83 29.2078C157.82 29.2078 156.976 29.5509 156.298 30.2371C155.636 30.9409 155.306 31.8118 155.306 32.8499C155.306 33.888 155.636 34.759 156.298 35.4628Z" fill="#1A9787"/>
<path d="M175.712 25.8823C177.469 25.8823 178.966 26.5597 180.201 27.9146C181.454 29.2694 182.081 30.9145 182.081 32.8499C182.081 34.8206 181.454 36.4745 180.201 37.8117C178.983 39.1489 177.487 39.8175 175.712 39.8175C173.884 39.8175 172.475 39.1753 171.483 37.8909V44.7265H168.116V26.2518H171.483V27.809C172.475 26.5245 173.884 25.8823 175.712 25.8823ZM172.501 35.542C173.18 36.2282 174.041 36.5713 175.085 36.5713C176.129 36.5713 176.991 36.2282 177.669 35.542C178.365 34.8382 178.713 33.9408 178.713 32.8499C178.713 31.759 178.365 30.8705 177.669 30.1843C176.991 29.4805 176.129 29.1286 175.085 29.1286C174.041 29.1286 173.18 29.4805 172.501 30.1843C171.822 30.8705 171.483 31.759 171.483 32.8499C171.483 33.9408 171.822 34.8382 172.501 35.542Z" fill="#1A9787"/>
<path d="M195.575 37.8117C194.253 39.1489 192.617 39.8175 190.668 39.8175C188.719 39.8175 187.083 39.1489 185.761 37.8117C184.438 36.4745 183.777 34.8206 183.777 32.8499C183.777 30.8969 184.438 29.2518 185.761 27.9146C187.101 26.5597 188.736 25.8823 190.668 25.8823C192.599 25.8823 194.235 26.5597 195.575 27.9146C196.915 29.2694 197.585 30.9145 197.585 32.8499C197.585 34.803 196.915 36.4569 195.575 37.8117ZM188.136 35.4628C188.815 36.149 189.659 36.4921 190.668 36.4921C191.677 36.4921 192.521 36.149 193.2 35.4628C193.879 34.7766 194.218 33.9056 194.218 32.8499C194.218 31.7942 193.879 30.9233 193.2 30.2371C192.521 29.5509 191.677 29.2078 190.668 29.2078C189.659 29.2078 188.815 29.5509 188.136 30.2371C187.475 30.9409 187.144 31.8118 187.144 32.8499C187.144 33.888 187.475 34.759 188.136 35.4628Z" fill="#1A9787"/>
<path d="M209.351 32.6916C210.569 33.2898 211.178 34.2927 211.178 35.7003C211.178 36.8264 210.795 37.7325 210.03 38.4187C209.264 39.1049 208.194 39.448 206.819 39.448H199.954V26.2518H206.297C207.654 26.2518 208.716 26.5949 209.481 27.2811C210.247 27.9497 210.63 28.8471 210.63 29.9732C210.63 31.1344 210.204 32.0406 209.351 32.6916ZM205.984 29.0494H203.112V31.4247H205.984C206.941 31.4247 207.419 31.0289 207.419 30.2371C207.419 29.4453 206.941 29.0494 205.984 29.0494ZM203.112 36.5713H206.427C207.402 36.5713 207.889 36.149 207.889 35.3044C207.889 34.9349 207.759 34.6446 207.498 34.4335C207.237 34.2223 206.88 34.1168 206.427 34.1168H203.112V36.5713Z" fill="#1A9787"/>
<path d="M216.653 30.4746H219.185C220.664 30.4746 221.856 30.8881 222.761 31.7151C223.666 32.5244 224.118 33.6065 224.118 34.9613C224.118 36.3161 223.666 37.407 222.761 38.234C221.856 39.0434 220.664 39.448 219.185 39.448H213.286V26.2518H216.653V30.4746ZM216.653 36.4393H219.211C219.681 36.4393 220.064 36.3073 220.36 36.0434C220.673 35.7619 220.829 35.4012 220.829 34.9613C220.829 34.5215 220.673 34.1608 220.36 33.8792C220.064 33.5977 219.681 33.457 219.211 33.457H216.653V36.4393Z" fill="#1A9787"/>
<path d="M229.779 26.2518H235.887V39.448H232.598V35.3308H231.423L228.421 39.448H224.532L227.795 34.9349C226.959 34.583 226.289 34.0288 225.785 33.2722C225.298 32.5156 225.054 31.6887 225.054 30.7913C225.054 29.5773 225.489 28.5128 226.359 27.5978C227.212 26.7005 228.352 26.2518 229.779 26.2518ZM232.598 29.287H230.04C229.552 29.287 229.143 29.4365 228.813 29.7356C228.5 30.0347 228.343 30.4218 228.343 30.8969C228.343 31.372 228.5 31.7502 228.813 32.0318C229.143 32.3133 229.552 32.454 230.04 32.454H232.598V29.287Z" fill="#1A9787"/>
<path d="M239.06 26.331H242.166L245.037 31.2928L242.166 36.2282H239.06L241.931 31.2928L239.06 26.331ZM244.019 26.331H247.125L249.997 31.2928L247.125 36.2282H244.019L246.89 31.2928L244.019 26.331Z" fill="#1A9787"/>
</svg>
