<svg width="43" height="43" viewBox="0 0 43 43" fill="none" xmlns="http://www.w3.org/2000/svg">
<rect x="1.5" y="1.5" width="40" height="40" rx="6.5" stroke="#1A9787" stroke-width="3"/>
<path fill-rule="evenodd" clip-rule="evenodd" d="M14.2374 20.4574C19.0692 18.3406 22.2912 16.945 23.9033 16.2707C28.5063 14.3456 29.4627 14.0112 30.0861 14.0001C30.2232 13.9977 30.5298 14.0319 30.7284 14.1939C30.8961 14.3307 30.9422 14.5155 30.9643 14.6452C30.9864 14.775 31.0139 15.0705 30.992 15.3014C30.7426 17.9367 29.6633 24.3322 29.1142 27.2838C28.8818 28.5328 28.4244 28.9516 27.9815 28.9926C27.0189 29.0816 26.288 28.3529 25.3558 27.7384C23.897 26.7769 23.0729 26.1783 21.6569 25.24C20.0205 24.1556 21.0813 23.5596 22.0139 22.5856C22.258 22.3307 26.4988 18.4519 26.5809 18.1C26.5912 18.056 26.6007 17.892 26.5038 17.8053C26.4069 17.7187 26.2639 17.7483 26.1606 17.7719C26.0143 17.8053 23.6839 19.3542 19.1694 22.4185C18.5079 22.8753 17.9087 23.0978 17.3719 23.0862C16.7801 23.0733 15.6417 22.7497 14.7955 22.4731C13.7575 22.1338 12.9325 21.9544 13.0044 21.3782C13.0418 21.0781 13.4528 20.7712 14.2374 20.4574Z" fill="#1A9787"/>
</svg>
