<svg width="43" height="43" viewBox="0 0 43 43" fill="none" xmlns="http://www.w3.org/2000/svg">
<rect x="1.5" y="1.5" width="40" height="40" rx="6.5" stroke="#1A9787" stroke-width="3"/>
<path fill-rule="evenodd" clip-rule="evenodd" d="M22.0376 13C24.435 13.001 26.6854 13.9299 28.3774 15.6158C30.0696 17.3017 31.001 19.5426 31 21.9259C30.9981 26.8439 26.9772 30.8453 22.0378 30.8453H22.034C20.5341 30.8449 19.0603 30.4704 17.7511 29.7596L13 31L14.2715 26.378C13.4871 25.0254 13.0745 23.4908 13.0752 21.9188C13.0772 17.0011 17.0976 13 22.0376 13ZM26.1237 23.7868C25.8998 23.6752 24.7987 23.1362 24.5934 23.0617C24.3883 22.9873 24.2388 22.9503 24.0897 23.1733C23.9403 23.3963 23.5112 23.8984 23.3805 24.047C23.2498 24.1958 23.1193 24.2145 22.8954 24.1028C22.8588 24.0847 22.809 24.0632 22.7475 24.0366C22.4323 23.9005 21.8103 23.632 21.0944 22.9966C20.4288 22.4057 19.9794 21.6759 19.8487 21.4529C19.7318 21.2529 19.8234 21.1446 19.9152 21.0361C19.9259 21.0234 19.9365 21.0108 19.9469 20.998C20.1893 20.6984 20.4321 20.3843 20.5067 20.2357C20.5814 20.0869 20.544 19.9567 20.488 19.8452C20.4505 19.7704 20.2367 19.2523 20.0437 18.7846C19.9489 18.5549 19.8591 18.3373 19.7977 18.1903C19.637 17.8066 19.4743 17.8076 19.3437 17.8084C19.3265 17.8085 19.3098 17.8086 19.2937 17.8078C19.1633 17.8013 19.0139 17.8 18.8645 17.8C18.7153 17.8 18.4726 17.8557 18.2673 18.0789C18.2541 18.0933 18.2394 18.1089 18.2234 18.1259C17.9902 18.3736 17.4837 18.9116 17.4837 19.9382C17.4837 21.0288 18.2769 22.0827 18.396 22.241L18.398 22.2436C18.4053 22.2533 18.4184 22.272 18.4372 22.2988C18.7051 22.6812 20.124 24.7066 22.2235 25.6087C22.7578 25.8386 23.1749 25.9756 23.5002 26.0783C24.0367 26.2479 24.5248 26.224 24.9107 26.1666C25.341 26.1026 26.2355 25.6274 26.4223 25.1069C26.6088 24.5863 26.6088 24.1401 26.5527 24.047C26.5079 23.9723 26.4026 23.9217 26.2467 23.8467C26.2087 23.8284 26.1676 23.8087 26.1237 23.7868Z" fill="#1A9787"/>
</svg>
